<svg width="327" height="233" viewBox="0 0 327 233" fill="none" xmlns="http://www.w3.org/2000/svg">
<path d="M61.7411 160.657H271.239C282.424 160.657 291.49 151.591 291.49 140.406V33.9081C291.49 22.7238 282.424 13.6572 271.239 13.6572H212.99H192.232H61.7411C50.5568 13.6572 41.4902 22.7238 41.4902 33.9081V140.406C41.4902 151.591 50.5569 160.657 61.7411 160.657Z" fill="#7C355A"/>
<g filter="url(#filter0_d_2839_715)">
<path d="M59.3287 57.0905C57.9474 57.1522 56.7501 56.7784 55.7369 55.9688C54.7625 55.1168 54.2453 54.0204 54.1853 52.6797C54.1235 51.2984 54.5408 50.1602 55.437 49.2653C56.3739 48.3685 57.533 47.8892 58.9144 47.8274C60.2957 47.7656 61.4727 48.1404 62.4453 48.9518C63.4179 49.7632 63.9351 50.8595 63.9968 52.2409C64.0568 53.5816 63.6396 54.7197 62.7451 55.6553C61.8489 56.5503 60.7101 57.0287 59.3287 57.0905ZM53.6315 90.8079L53.6042 90.1984L54.4465 89.9165C55.2481 89.6364 55.7803 89.2462 56.0428 88.746C56.3461 88.2439 56.4795 87.5866 56.4431 86.7741L55.5899 67.6995C55.5518 66.8463 55.3611 66.2238 55.0179 65.8321C54.7135 65.3979 54.1514 65.1178 53.3316 64.9916L52.4702 64.8469L52.443 64.2375L63.4344 60.1431L64.071 60.7253L64.2753 69.3871L65.0386 86.4506C65.0749 87.2632 65.2462 87.9069 65.5524 88.3817C65.8992 88.8547 66.464 89.1958 67.2469 89.405L67.8645 89.5606L67.8917 90.17L53.6315 90.8079ZM70.5898 90.0493L70.5625 89.4399L71.4048 89.158C72.8086 88.6881 73.475 87.6609 73.4042 86.0764L72.5509 67.0019C72.511 66.1081 72.3397 65.4644 72.0371 65.0708C71.7327 64.6366 71.1706 64.3565 70.3508 64.2303L69.4258 64.0274L69.3985 63.418L79.6614 59.4173L80.298 59.9995L80.9491 63.6341C82.3148 62.3111 83.8732 61.2033 85.6245 60.3108C87.3757 59.4183 89.1248 58.9329 90.8718 58.8548C93.5532 58.7348 95.6376 59.3744 97.125 60.7733C98.653 62.1705 99.4843 64.3723 99.6187 67.3787L100.404 84.9298C100.475 86.5142 101.291 87.4751 102.853 87.8123L103.41 87.9706L103.437 88.58L89.0549 89.2233L89.0277 88.6139L89.809 88.3347C91.211 87.8242 91.8774 86.797 91.8084 85.2532L90.9388 65.813C90.8225 63.2128 89.4643 61.9709 86.8641 62.0872C85.0765 62.1672 83.1664 63.1482 81.1337 65.0303L82.0605 85.7503C82.1314 87.3348 82.8869 88.2983 84.327 88.641L84.8837 88.7993L84.9109 89.4087L70.5898 90.0493ZM116.405 88.9159C114.414 89.0049 112.616 88.8411 111.01 88.4245C109.405 88.0484 107.917 87.5451 106.545 86.9144L106.282 79.6597L106.891 79.6324L109.127 83.1962C110.093 84.7813 111.123 85.9565 112.216 86.7218C113.347 87.4447 114.746 87.7688 116.411 87.6943C118.362 87.6071 119.907 87.1106 121.047 86.2047C122.226 85.2564 122.782 84.0509 122.717 82.5883C122.657 81.2476 122.181 80.1697 121.29 79.3547C120.399 78.5397 118.78 77.8387 116.433 77.2516L113.838 76.5739C111.327 75.9534 109.326 74.9031 107.835 73.4228C106.344 71.9426 105.548 70.0852 105.448 67.8507C105.329 65.1693 106.283 62.8469 108.312 60.8836C110.341 58.9202 113.326 57.8504 117.267 57.6741C118.851 57.6032 120.342 57.7197 121.74 58.0236C123.177 58.285 124.56 58.732 125.891 59.3645L125.82 65.9625L125.211 65.9897L122.909 62.3068C122.077 61.0006 121.263 60.1007 120.468 59.6071C119.711 59.071 118.581 58.8366 117.078 58.9038C115.696 58.9656 114.414 59.4097 113.229 60.2362C112.045 61.0626 111.485 62.1868 111.548 63.6088C111.61 64.9901 112.167 66.0643 113.219 66.8314C114.312 67.5967 115.889 68.2793 117.951 68.8791L120.729 69.5487C123.694 70.3116 125.842 71.4572 127.172 72.9853C128.501 74.4728 129.214 76.3135 129.312 78.5074C129.445 81.4732 128.373 83.9026 126.097 85.7956C123.861 87.6868 120.63 88.7269 116.405 88.9159ZM132.396 101.329L132.369 100.72L133.089 100.443C134.574 99.9698 135.282 98.9611 135.213 97.4172L133.73 64.2653C133.69 63.3715 133.498 62.7084 133.153 62.276C132.848 61.8418 132.286 61.5617 131.466 61.4355L130.605 61.2908L130.578 60.6814L140.78 56.6834L141.416 57.2656L142.049 59.1302C143.354 58.2577 144.808 57.5616 146.413 57.0421C148.059 56.5206 149.756 56.2209 151.503 56.1427C154.996 55.9864 157.819 57.2036 159.97 59.7941C162.161 62.3422 163.366 66.0945 163.588 71.0511C163.806 75.9264 162.84 79.8165 160.691 82.7216C158.582 85.6248 155.475 87.1682 151.372 87.3518C148.162 87.4954 145.44 87.149 143.204 86.3127L143.676 96.8555C143.748 98.4806 144.525 99.4636 146.006 99.8044L147.177 100.057L147.205 100.667L132.396 101.329ZM148.368 85.7153C150.399 85.6245 151.957 84.4964 153.04 82.3311C154.165 80.1639 154.617 76.6224 154.397 71.7065C154.177 66.7905 153.455 63.383 152.23 61.4837C151.003 59.5439 149.313 58.6221 147.16 58.7184C145.657 58.7857 144.013 59.3477 142.228 60.4045L143.327 84.9638C144.9 85.5448 146.58 85.7953 148.368 85.7153ZM172.82 52.0139C171.438 52.0757 170.241 51.7018 169.228 50.8923C168.253 50.0402 167.736 48.9439 167.676 47.6032C167.614 46.2219 168.032 45.0837 168.928 44.1887C169.865 43.2919 171.024 42.8126 172.405 42.7509C173.787 42.6891 174.964 43.0639 175.936 43.8752C176.909 44.6866 177.426 45.783 177.488 47.1643C177.548 48.505 177.131 49.6432 176.236 50.5788C175.34 51.4737 174.201 51.9521 172.82 52.0139ZM167.122 85.7313L167.095 85.1219L167.937 84.84C168.739 84.5599 169.271 84.1697 169.534 83.6694C169.837 83.1674 169.97 82.5101 169.934 81.6975L169.081 62.6229C169.043 61.7698 168.852 61.1473 168.509 60.7556C168.204 60.3214 167.642 60.0412 166.823 59.915L165.961 59.7704L165.934 59.161L176.925 55.0666L177.562 55.6488L177.766 64.3106L178.53 81.3741C178.566 82.1866 178.737 82.8303 179.043 83.3051C179.39 83.7781 179.955 84.1192 180.738 84.3285L181.355 84.484L181.383 85.0934L167.122 85.7313Z" fill="#FFF6F6"/>
<path d="M184.264 84.9646L184.236 84.3552L184.957 84.0787C186.397 83.5257 187.083 82.4773 187.014 80.9335L185.559 48.3909C185.52 47.5378 185.35 46.9144 185.048 46.5208C184.745 46.1273 184.183 45.8471 183.361 45.6803L182.436 45.4774L182.409 44.868L193.017 41.7678L194.017 42.2727L194.158 50.8763L194.498 58.4939C195.868 57.2521 197.347 56.1886 198.935 55.3033C200.563 54.3757 202.372 53.8673 204.363 53.7782C207.004 53.6601 209.129 54.3181 210.741 55.7523C212.392 57.1846 213.288 59.465 213.428 62.5933L214.197 79.7787C214.233 80.5912 214.425 81.234 214.772 81.707C215.118 82.18 215.703 82.5202 216.527 82.7276L217.023 82.8886L217.05 83.498L202.79 84.1359L202.762 83.5265L203.486 83.3109C204.926 82.758 205.611 81.6893 205.54 80.1048L204.684 60.9693C204.612 59.3442 204.277 58.2397 203.681 57.6557C203.126 57.0699 202.158 56.8079 200.776 56.8697C199.882 56.9097 198.916 57.1361 197.876 57.549C196.834 57.9213 195.784 58.5585 194.725 59.4608L195.673 80.6683C195.744 82.2528 196.521 83.2357 198.004 83.6172L198.497 83.7173L198.524 84.3267L184.264 84.9646ZM233.376 52.4805C236.016 52.3623 238.296 52.81 240.214 53.8233C242.13 54.796 243.617 56.195 244.676 58.0202C245.773 59.803 246.375 61.8726 246.48 64.229C246.5 64.6759 246.501 65.1441 246.482 65.6334C246.461 66.0821 246.398 66.492 246.293 66.8631L228.132 67.6755C228.369 72.0614 229.283 75.1958 230.873 77.0787C232.502 78.9191 234.82 79.7721 237.827 79.6376C239.858 79.5468 241.489 79.1481 242.719 78.4418C243.95 77.7354 245.085 76.7279 246.126 75.4194L246.76 75.9406C245.6 78.2315 243.992 80.0539 241.936 81.4078C239.92 82.76 237.45 83.5014 234.525 83.6323C231.64 83.7613 229.053 83.2664 226.764 82.1475C224.473 80.988 222.647 79.2786 221.284 77.0191C219.92 74.7597 219.167 72.0252 219.024 68.8157C218.875 65.4842 219.48 62.6279 220.839 60.2467C222.196 57.8249 223.985 55.9537 226.205 54.6331C228.467 53.3107 230.857 52.5931 233.376 52.4805ZM233.247 53.7075C232.069 53.7602 231.07 54.1713 230.249 54.9407C229.468 55.6677 228.874 56.9563 228.468 58.8063C228.101 60.6139 227.971 63.164 228.078 66.4566L238.498 65.9905C238.707 61.5439 238.402 58.362 237.583 56.4446C236.764 54.5272 235.319 53.6148 233.247 53.7075ZM250.318 82.0099L250.291 81.4005L251.194 81.1158C251.996 80.8357 252.528 80.4455 252.791 79.9453C253.094 79.4432 253.228 78.8062 253.194 78.0343L252.341 58.9597C252.301 58.0659 252.109 57.4231 251.766 57.0314C251.461 56.5972 250.899 56.3171 250.08 56.1909L249.155 55.988L249.127 55.3786L259.451 51.3752L260.088 51.9573L260.871 57.1737L260.892 57.6612C261.41 56.4982 262.095 55.4295 262.947 54.4551C263.838 53.4383 264.818 52.6006 265.888 51.9421C266.998 51.2818 268.102 50.9271 269.199 50.8781C270.743 50.809 271.94 51.1829 272.791 51.9997C273.641 52.8166 274.096 53.875 274.154 55.1751C274.216 56.5564 273.858 57.6512 273.08 58.4595C272.34 59.2253 271.422 59.6327 270.325 59.6818C268.619 59.7581 267.078 58.9722 265.701 57.324L265.574 57.2076C265.142 56.657 264.661 56.3732 264.131 56.3562C263.6 56.2985 263.123 56.5641 262.702 57.1529C262.312 57.5367 261.986 57.999 261.726 58.5399C261.504 59.0384 261.285 59.618 261.071 60.279L261.831 77.2816C261.904 78.9067 262.66 79.8905 264.1 80.2332L266.075 80.6944L266.102 81.3039L250.318 82.0099Z" fill="#CE307D"/>
</g>
<circle cx="58.9038" cy="52.654" r="5.12849" transform="rotate(-2.56118 58.9038 52.654)" fill="#CE307D"/>
<circle cx="172.7" cy="47.5651" r="5.12849" transform="rotate(-2.56118 172.7 47.5651)" fill="#CE307D"/>
<g filter="url(#filter1_d_2839_715)">
<path fill-rule="evenodd" clip-rule="evenodd" d="M282.561 50.0856C285.569 45.2933 288.463 40.3538 291.296 35.4523C288.355 35.8449 285.657 36.6646 282.81 37.6308C282.308 34.9878 280.707 31.1545 279.343 28.9292C276.359 30.5359 274.049 32.1522 271.409 34.2426C270.053 31.9722 268.574 30.0536 266.706 28.2295C265.779 33.466 265.182 38.7188 264.862 44.0067C267.268 44.5841 269.517 44.5813 271.892 45.2972C275.973 46.5269 278.839 47.928 282.561 50.0856Z" stroke="white" stroke-width="1.59657" stroke-miterlimit="1.5" stroke-linecap="round" stroke-linejoin="round"/>
<path d="M257.254 22.6064C258.302 23.4979 259.32 24.434 260.385 25.3022" stroke="white" stroke-width="1.59657" stroke-miterlimit="1.5" stroke-linecap="round" stroke-linejoin="round"/>
<path d="M273.916 11.9834C273.938 13.598 274.079 15.2006 274.123 16.8125" stroke="white" stroke-width="1.59657" stroke-miterlimit="1.5" stroke-linecap="round" stroke-linejoin="round"/>
<path d="M288.542 21.4961C290.162 20.0415 291.644 18.4236 293.26 16.9654" stroke="white" stroke-width="1.59657" stroke-miterlimit="1.5" stroke-linecap="round" stroke-linejoin="round"/>
<path d="M299.255 38.185C301.308 37.9349 303.399 37.7137 305.432 37.2707" stroke="white" stroke-width="1.59657" stroke-miterlimit="1.5" stroke-linecap="round" stroke-linejoin="round"/>
</g>
<path d="M61.7411 232.086H271.239C282.424 232.086 291.49 223.019 291.49 211.835V132.252C291.49 121.068 282.424 112.001 271.239 112.001H223.801C217.716 112.001 211.954 109.265 208.108 104.55L198.31 92.5371C194.464 87.8219 188.702 85.0859 182.617 85.0859H61.7411C50.5568 85.0859 41.4902 94.1526 41.4902 105.337V211.835C41.4902 223.019 50.5569 232.086 61.7411 232.086Z" fill="#E557A1"/>
<defs>
<filter id="filter0_d_2839_715" x="49.5613" y="38.1729" width="228.529" height="70.9701" filterUnits="userSpaceOnUse" color-interpolation-filters="sRGB">
<feFlood flood-opacity="0" result="BackgroundImageFix"/>
<feColorMatrix in="SourceAlpha" type="matrix" values="0 0 0 0 0 0 0 0 0 0 0 0 0 0 0 0 0 0 127 0" result="hardAlpha"/>
<feOffset dy="2.15937"/>
<feGaussianBlur stdDeviation="1.07968"/>
<feComposite in2="hardAlpha" operator="out"/>
<feColorMatrix type="matrix" values="0 0 0 0 0.807843 0 0 0 0 0.188235 0 0 0 0 0.490196 0 0 0 0.15 0"/>
<feBlend mode="normal" in2="BackgroundImageFix" result="effect1_dropShadow_2839_715"/>
<feBlend mode="normal" in="SourceGraphic" in2="effect1_dropShadow_2839_715" result="shape"/>
</filter>
<filter id="filter1_d_2839_715" x="255.321" y="11.1855" width="52.0451" height="41.9689" filterUnits="userSpaceOnUse" color-interpolation-filters="sRGB">
<feFlood flood-opacity="0" result="BackgroundImageFix"/>
<feColorMatrix in="SourceAlpha" type="matrix" values="0 0 0 0 0 0 0 0 0 0 0 0 0 0 0 0 0 0 127 0" result="hardAlpha"/>
<feOffset dy="1.13534"/>
<feGaussianBlur stdDeviation="0.567669"/>
<feComposite in2="hardAlpha" operator="out"/>
<feColorMatrix type="matrix" values="0 0 0 0 0.807843 0 0 0 0 0.188235 0 0 0 0 0.490196 0 0 0 0.47 0"/>
<feBlend mode="normal" in2="BackgroundImageFix" result="effect1_dropShadow_2839_715"/>
<feBlend mode="normal" in="SourceGraphic" in2="effect1_dropShadow_2839_715" result="shape"/>
</filter>
</defs>
</svg>
