<svg width="210" height="100" viewBox="0 0 210 100" fill="none" xmlns="http://www.w3.org/2000/svg">
<path d="M146.372 66.8319L149.065 45.0467L132.019 42.9399L131.579 46.4966L144.3 48.0688L143.653 53.2966L131.873 51.8407L131.434 55.3975L143.214 56.8534L142.486 62.7405L129.766 61.1683L129.326 64.7251L146.372 66.8319Z" fill="white"/>
<path d="M85.8702 43.5712C85.7843 44.2662 85.6053 44.9186 85.3332 45.5283C85.0738 46.1292 84.7029 46.6956 84.2206 47.2274C83.7496 47.7607 83.1324 48.2136 82.3688 48.5862C81.6167 48.9602 80.7461 49.2158 79.757 49.353L85.9664 59.3661L80.3584 58.6729L74.5976 49.3846L70.477 48.8753L69.433 57.3226L65.1244 56.7901L67.8169 35.0049L78.161 36.2834C78.6739 36.3468 79.1393 36.4199 79.5573 36.5027C79.9879 36.5766 80.499 36.7021 81.0905 36.8789C81.6946 37.047 82.2202 37.2417 82.6674 37.463C83.1259 37.6856 83.5863 37.9864 84.0487 38.3652C84.5225 38.7455 84.8981 39.1706 85.1756 39.6408C85.4658 40.1021 85.6787 40.6732 85.8144 41.3541C85.9514 42.0247 85.97 42.7638 85.8702 43.5712ZM71.6878 39.0789L70.9166 45.3185L74.8833 45.8088C75.5672 45.8933 76.1738 45.9475 76.7032 45.9715C77.2326 45.9954 77.7841 45.9805 78.3578 45.9269C78.9327 45.8631 79.4108 45.7406 79.7919 45.5594C80.1845 45.3796 80.5194 45.1045 80.7966 44.7341C81.0852 44.3651 81.263 43.9097 81.33 43.368C81.5813 41.3341 79.9574 40.1009 76.4581 39.6684L71.6878 39.0789Z" fill="white"/>
<path d="M87.4375 59.5479L90.13 37.7627L107.176 39.8695L106.737 43.4263L94.0161 41.8541L93.37 47.0819L105.15 48.5379L104.711 52.0947L92.9304 50.6387L92.2028 56.5257L104.923 58.0979L104.484 61.6547L87.4375 59.5479Z" fill="white"/>
<path d="M107.245 39.8781L112.187 40.4888L117.154 59.0026L126.463 42.2533L131.148 42.8323L119.052 63.4552L113.94 62.8234L107.245 39.8781Z" fill="white"/>
<path d="M150.22 51.5244C150.134 52.2194 150.149 52.8957 150.264 53.5533C150.369 54.1993 150.591 54.839 150.929 55.4722C151.256 56.1041 151.745 56.6937 152.395 57.241C153.033 57.7868 153.815 58.2467 154.741 58.6206L146.281 66.8206L151.889 67.5137L159.738 59.9074L163.858 60.4167L162.814 68.864L167.123 69.3965L169.815 47.6113L159.471 46.3329C158.958 46.2695 158.489 46.227 158.064 46.2056C157.628 46.1725 157.102 46.1697 156.485 46.1972C155.858 46.2131 155.301 46.274 154.813 46.3798C154.314 46.4841 153.795 46.6637 153.254 46.9186C152.702 47.172 152.234 47.4929 151.85 47.8814C151.457 48.2581 151.111 48.7602 150.814 49.3876C150.517 50.0047 150.319 50.717 150.22 51.5244ZM165.069 50.6202L164.298 56.8599L160.331 56.3696C159.647 56.2851 159.046 56.19 158.526 56.0843C158.007 55.9786 157.476 55.83 156.932 55.6383C156.39 55.4364 155.956 55.2012 155.631 54.9326C155.294 54.6627 155.036 54.3144 154.857 53.8876C154.667 53.4594 154.606 52.9744 154.673 52.4328C154.924 50.3989 156.799 49.5982 160.299 50.0307L165.069 50.6202Z" fill="white"/>
<path d="M182.13 48.931C184.398 49.2113 186.601 49.7896 188.737 50.666L189.416 50.9366L187.574 54.32L186.945 54.0711C184.945 53.3051 183.096 52.8171 181.398 52.6072C179.722 52.4001 178.256 52.4679 176.998 52.8106C175.752 53.1547 175.082 53.71 174.987 54.4765C174.925 54.9773 175.133 55.4492 175.61 55.8922C176.099 56.3365 176.749 56.7437 177.56 57.1137C178.372 57.4735 179.269 57.8438 180.252 58.2247C181.246 58.607 182.236 59.0302 183.22 59.4943C184.204 59.9583 185.091 60.4622 185.88 61.006C186.669 61.5497 187.28 62.2219 187.714 63.0226C188.16 63.8145 188.324 64.6857 188.206 65.6362C188.131 66.2494 187.936 66.8428 187.622 67.4162C187.321 67.9808 186.855 68.5199 186.224 69.0334C185.605 69.5484 184.858 69.9749 183.983 70.3129C183.121 70.6422 182.04 70.8666 180.74 70.9862C179.454 71.0969 178.03 71.0558 176.468 70.8628C174.907 70.6698 173.515 70.3681 172.292 69.9576C171.071 69.5369 169.79 68.9946 168.449 68.3307L167.843 68.0379L169.755 64.5075L170.393 64.8199C173.163 66.0961 175.483 66.8498 177.352 67.0808C179.108 67.2978 180.556 67.233 181.699 66.8864C182.852 66.5413 183.478 65.9753 183.575 65.1883C183.629 64.7488 183.513 64.3349 183.225 63.9465C182.937 63.5582 182.529 63.2119 181.999 62.9078C181.471 62.5935 180.855 62.2891 180.151 61.9945C179.458 61.7013 178.724 61.4083 177.951 61.1155C177.177 60.8227 176.405 60.5146 175.635 60.1911C174.864 59.8677 174.134 59.5024 173.444 59.0954C172.765 58.6898 172.171 58.2532 171.662 57.7856C171.152 57.318 170.769 56.7673 170.512 56.1337C170.256 55.4898 170.173 54.7999 170.264 54.064C170.492 52.2243 171.685 50.805 173.846 49.806C176.017 48.8085 178.779 48.5168 182.13 48.931Z" fill="white"/>
<path d="M189.535 72.1665L192.228 50.3813L209.274 52.4882L208.834 56.0449L196.114 54.4727L195.468 59.7006L207.248 61.1565L206.808 64.7133L195.028 63.2573L194.3 69.1444L207.021 70.7166L206.581 74.2734L189.535 72.1665Z" fill="white"/>
<path d="M73.1268 85.2073C68.9594 84.6922 65.9012 83.3052 63.9522 81.0461C62.0279 78.7901 61.2918 75.8329 61.744 72.1745C61.9688 70.3559 62.5016 68.7793 63.3425 67.4447C64.186 66.089 65.2474 64.9964 66.5266 64.1669C67.8084 63.3163 69.2821 62.7362 70.9477 62.4268C72.6132 62.1174 74.3831 62.0785 76.2572 62.3101C77.3422 62.4442 78.3194 62.6401 79.1888 62.8979C80.0608 63.1345 80.818 63.3891 81.4603 63.6617C82.1051 63.9131 82.6378 64.1615 83.0581 64.4066C83.4785 64.6518 83.7807 64.8395 83.9649 64.9696L81.8065 68.7606C81.0618 68.3036 80.175 67.8827 79.146 67.4979C78.1417 67.1161 76.9738 66.8429 75.6422 66.6784C74.7544 66.5686 73.8633 66.5873 72.9689 66.7344C72.0991 66.8845 71.2961 67.2039 70.5597 67.6926C69.8506 68.1632 69.2439 68.8182 68.7396 69.6576C68.2353 70.497 67.9047 71.5511 67.7479 72.8199C67.6225 73.835 67.6281 74.8018 67.765 75.7205C67.929 76.621 68.2555 77.4236 68.7442 78.1281C69.2576 78.8356 69.9593 79.4376 70.8493 79.9341C71.742 80.4094 72.854 80.7293 74.1856 80.8939C75.024 80.9975 75.7814 81.0482 76.4576 81.0459C77.1339 81.0436 77.7374 81.0216 78.2684 80.9798C78.8019 80.9169 79.2751 80.8359 79.6879 80.7366C80.1007 80.6374 80.4753 80.5441 80.8115 80.4568L81.912 84.6184C81.046 84.9408 79.8523 85.1797 78.3309 85.3352C76.8096 85.4907 75.0748 85.448 73.1268 85.2073Z" fill="#9B51E0"/>
<path d="M90.7448 75.7588C90.6115 76.8373 90.6392 77.8283 90.828 78.7319C91.0414 79.6386 91.3925 80.4442 91.8812 81.1487C92.3972 81.8351 93.0535 82.3993 93.8501 82.8412C94.6467 83.2832 95.5875 83.5712 96.6725 83.7053C97.7329 83.8364 98.7031 83.7846 99.5834 83.5498C100.488 83.3181 101.262 82.9307 101.905 82.3876C102.575 81.8263 103.112 81.1304 103.515 80.3C103.943 79.4726 104.223 78.5197 104.357 77.4412C104.49 76.3627 104.45 75.3701 104.236 74.4635C104.05 73.5387 103.699 72.7332 103.183 72.0467C102.694 71.3422 102.039 70.7675 101.218 70.3225C100.422 69.8805 99.4931 69.594 98.4328 69.4629C97.3478 69.3288 96.3639 69.3897 95.481 69.6456C94.6008 69.8803 93.8256 70.2783 93.1554 70.8396C92.5124 71.3827 91.9758 72.0786 91.5454 72.9271C91.1424 73.7576 90.8755 74.7015 90.7448 75.7588ZM110.312 78.1772C110.079 80.0593 109.541 81.6781 108.698 83.0338C107.881 84.3714 106.846 85.4565 105.591 86.2891C104.339 87.1005 102.894 87.6519 101.256 87.9432C99.6424 88.2376 97.9355 88.2735 96.1354 88.051C94.3846 87.8346 92.7625 87.3873 91.2691 86.7089C89.7757 86.0305 88.5083 85.1439 87.4669 84.049C86.4282 82.933 85.6635 81.6254 85.1728 80.1263C84.6847 78.606 84.557 76.9049 84.7896 75.0228C85.0222 73.1407 85.5713 71.5339 86.4369 70.2024C87.3051 68.8498 88.3788 67.7587 89.658 66.9292C90.9618 66.1027 92.4083 65.5408 93.9972 65.2434C95.6109 64.949 97.2684 64.907 98.9699 65.1172C100.721 65.3336 102.343 65.781 103.836 66.4594C105.33 67.1378 106.596 68.035 107.634 69.151C108.673 70.267 109.437 71.5851 109.925 73.1054C110.415 74.6045 110.544 76.2951 110.312 78.1772Z" fill="#9B51E0"/>
<path d="M120.029 86.4633C120.298 86.518 120.604 86.5772 120.946 86.641C121.316 86.6867 121.748 86.7401 122.241 86.801C125.126 87.1576 127.336 86.7974 128.871 85.7204C130.431 84.6465 131.347 83.0099 131.619 80.8106C131.904 78.5056 131.453 76.6787 130.268 75.3299C129.083 73.9811 127.048 73.1284 124.163 72.7718C123.768 72.723 123.36 72.6833 122.938 72.6527C122.519 72.6009 122.122 72.5732 121.747 72.5698L120.029 86.4633ZM137.574 81.5466C137.339 83.4498 136.788 85.0672 135.923 86.3987C135.057 87.7302 133.926 88.7819 132.528 89.5539C131.156 90.329 129.528 90.8363 127.646 91.076C125.764 91.3157 123.688 91.2954 121.42 91.015C120.384 90.887 119.181 90.6953 117.81 90.4401C116.437 90.206 115.099 89.8903 113.797 89.4931L116.443 68.0819C117.801 68.035 119.199 68.0682 120.637 68.1816C122.102 68.2768 123.352 68.3884 124.388 68.5164C126.583 68.7877 128.542 69.2445 130.265 69.8869C132.013 70.5323 133.472 71.3889 134.641 72.4567C135.811 73.5245 136.654 74.8095 137.169 76.3116C137.685 77.8138 137.819 79.5588 137.574 81.5466Z" fill="#9B51E0"/>
<path d="M167.336 96.4001C165.994 93.6794 164.514 90.9737 162.894 88.2829C161.273 85.5922 159.513 83.0236 157.612 80.5773L155.832 94.9783L150.136 94.2743L152.853 72.2921L157.55 72.8727C158.278 73.6711 159.072 74.6388 159.933 75.7758C160.794 76.9127 161.658 78.1252 162.525 79.4133C163.42 80.6832 164.295 82.0045 165.152 83.3771C166.012 84.7286 166.815 86.0301 167.561 87.2818L169.165 74.3082L174.898 75.0168L172.181 96.9989L167.336 96.4001Z" fill="#9B51E0"/>
<path d="M192.843 81.0992C190.155 80.767 188.127 81.1712 186.759 82.3119C185.419 83.4344 184.611 85.1058 184.337 87.3263C184.204 88.4047 184.23 89.4064 184.416 90.3311C184.605 91.2347 184.956 92.0403 185.469 92.7478C185.983 93.4554 186.661 94.0438 187.505 94.513C188.35 94.961 189.365 95.2582 190.549 95.4045C191.19 95.4837 191.734 95.5402 192.18 95.5739C192.651 95.6107 193.063 95.6187 193.417 95.5979L194.361 87.9533L200.132 88.6665L198.787 99.5465C198.068 99.6938 196.928 99.7999 195.368 99.8647C193.805 99.9506 191.901 99.8549 189.658 99.5776C187.734 99.3399 186.015 98.8697 184.499 98.1671C183.008 97.4676 181.768 96.5629 180.779 95.453C179.789 94.3431 179.074 93.0416 178.633 91.5486C178.216 90.0586 178.12 88.4043 178.345 86.5857C178.572 84.7459 179.106 83.1587 179.947 81.8242C180.788 80.4896 181.848 79.4076 183.127 78.5781C184.409 77.7274 185.858 77.1443 187.475 76.8288C189.115 76.5163 190.824 76.4698 192.599 76.6892C193.807 76.8386 194.883 77.0467 195.827 77.3136C196.797 77.5624 197.616 77.8246 198.283 78.1003C198.977 78.3578 199.535 78.6092 199.955 78.8544C200.4 79.1026 200.714 79.2918 200.899 79.4219L198.744 83.1812C197.999 82.7242 197.125 82.3048 196.121 81.923C195.144 81.5232 194.051 81.2486 192.843 81.0992Z" fill="#9B51E0"/>
<path d="M140.093 85.7527L140.912 79.1282L148.176 80.026L147.464 85.7888C147.222 87.7456 146.867 89.2419 146.4 90.2777C145.932 91.3135 145.104 92.1044 143.918 92.6503C142.749 93.2166 141.166 93.4039 139.171 93.212L139.518 90.4114C141.92 90.3802 143.266 89.1887 143.557 86.8369C143.575 86.6933 143.592 86.4767 143.607 86.187L140.093 85.7527Z" fill="#9B51E0"/>
<path d="M148.103 74.7774C147.908 76.3607 146.342 77.4702 144.606 77.2556C142.87 77.041 141.621 75.5836 141.817 74.0004C142.012 72.4171 143.578 71.3076 145.314 71.5222C147.05 71.7367 148.299 73.1942 148.103 74.7774Z" fill="#9B51E0"/>
<path d="M45.1979 79.5879C45.1284 80.1506 45.2912 80.7185 45.6506 81.1669C46.01 81.6152 46.5365 81.9072 47.1143 81.9786L54.8221 82.9312C55.3999 83.0027 55.9816 82.8477 56.4394 82.5003C56.8971 82.153 57.1933 81.6417 57.2629 81.0791L62.9361 35.1766C63.0057 34.6134 62.8432 34.0448 62.4841 33.5955C62.125 33.1462 61.5987 32.8528 61.0205 32.7797L52.6948 31.7507C52.1162 31.6808 51.5343 31.8372 51.0767 32.1856C50.619 32.534 50.3229 33.0458 50.2533 33.6091L50.1866 34.1487C50.1171 34.7114 50.2799 35.2793 50.6393 35.7277C50.9987 36.176 51.5252 36.468 52.103 36.5394L54.651 36.8543C55.2305 36.926 55.7585 37.2188 56.119 37.6685C56.4794 38.1181 56.6427 38.6877 56.573 39.252L51.9507 76.1274C51.8767 76.6851 51.5798 77.1905 51.1245 77.5339C50.6692 77.8773 50.0922 78.031 49.5186 77.9618L47.6458 77.7303C47.0663 77.6587 46.4829 77.8142 46.0238 78.1625C45.5648 78.5109 45.2677 79.0236 45.1979 79.5879Z" fill="white"/>
<path d="M12.0862 75.4955C12.0167 76.0582 11.7205 76.5694 11.2627 76.9167C10.805 77.2641 10.2233 77.4191 9.64547 77.3477L1.93767 76.395C1.35929 76.3236 0.832094 76.0317 0.47167 75.5834C0.111247 75.1351 -0.053005 74.567 0.0149184 74.0036L5.68819 28.1011C5.75955 27.5375 6.05706 27.0258 6.51572 26.6777C6.97439 26.3297 7.55693 26.1736 8.1361 26.2435L16.4554 27.2717C17.0342 27.3449 17.5612 27.6381 17.9213 28.0874C18.2814 28.5367 18.4454 29.1054 18.3774 29.6694L18.3107 30.2091C18.2394 30.7721 17.9418 31.2831 17.4831 31.6301C17.0243 31.9772 16.442 32.1319 15.8636 32.0604L13.3155 31.7455C12.737 31.6757 12.1551 31.8321 11.6974 32.1804C11.2397 32.5288 10.9436 33.0407 10.874 33.6039L6.37915 70.495C6.34468 70.7739 6.36717 71.057 6.44531 71.328C6.52345 71.599 6.6557 71.8527 6.83447 72.0744C7.01323 72.296 7.23497 72.4813 7.48694 72.6197C7.73891 72.758 8.01614 72.8466 8.30266 72.8803L10.1755 73.1118C10.7501 73.1861 11.273 73.4781 11.6307 73.9243C11.9884 74.3706 12.1521 74.9351 12.0862 75.4955Z" fill="white"/>
<path d="M15.5365 70.0272C15.5014 70.2974 15.358 70.5423 15.1375 70.7086C14.917 70.8749 14.6374 70.9489 14.3597 70.9146L10.6651 70.458C10.3887 70.4222 10.1373 70.2817 9.96526 70.0671C9.79324 69.8525 9.71451 69.581 9.74613 69.3115L12.4639 47.3218C12.4973 47.052 12.6393 46.8068 12.8588 46.6402C13.0783 46.4737 13.3573 46.3993 13.6344 46.4336L17.6284 46.9272C17.9055 46.9615 18.1579 47.1015 18.3303 47.3165C18.5026 47.5315 18.5807 47.8039 18.5473 48.0737L18.5175 48.3156C18.4825 48.5847 18.34 48.8288 18.1209 48.9951C17.9019 49.1613 17.6238 49.2363 17.347 49.2037L16.124 49.0526C15.8463 49.0183 15.5667 49.0923 15.3462 49.2586C15.1257 49.4249 14.9823 49.6698 14.9472 49.94L12.7941 67.6226C12.7623 67.8932 12.8418 68.1657 13.0152 68.3806C13.1886 68.5956 13.4417 68.7355 13.7194 68.7698L14.6112 68.88C14.749 68.8962 14.8824 68.9388 15.0036 69.0053C15.1248 69.0718 15.2315 69.161 15.3175 69.2676C15.4035 69.3742 15.4671 69.4962 15.5047 69.6266C15.5423 69.7569 15.5531 69.8931 15.5365 70.0272Z" fill="white"/>
<path d="M32.7346 42.7547C42.1667 43.9204 50.0143 43.2352 50.2629 41.2243C50.5114 39.2133 43.0667 36.6381 33.6347 35.4723C24.2027 34.3066 16.355 34.9918 16.1065 37.0027C15.8579 39.0137 23.3026 41.5889 32.7346 42.7547Z" fill="white"/>
<path d="M29.7728 28.0486C22.7352 23.4001 34.1924 16.4652 31.7997 10.7597C31.2716 9.48526 28.1649 10.1845 28.6599 11.3604C30.4023 15.5245 25.5412 18.4882 24.663 22.2969C24.0314 25.0528 24.8017 27.9254 27.2659 29.5462C28.3061 30.2352 31.1602 28.9632 29.7728 28.0486Z" fill="white"/>
<path d="M35.572 18.122C36.8436 15.8923 37.9308 13.3753 37.5604 10.7726C37.0671 7.22897 34.5851 4.70541 34.9029 0.877845C35.0112 -0.469098 31.8646 -0.127464 31.7743 0.969782C31.5448 3.28773 31.9593 5.62723 32.9743 7.74339C34.7305 11.4305 34.6528 14.2045 32.6306 17.7459C31.8641 19.0807 34.9765 19.0686 35.5226 18.1033L35.572 18.122Z" fill="white"/>
</svg>
